<svg xmlns="http://www.w3.org/2000/svg" width="250" height="250" viewBox="0 0 200 200">
  <defs>
    <linearGradient id="a" x1="62.1%" x2="108.2%" y1="0%" y2="37.9%">
      <stop offset="0%" stop-color="#4285EB"/>
      <stop offset="100%" stop-color="#2EC7FF"/>
    </linearGradient>
    <linearGradient id="b" x1="69.6%" x2="54%" y1="0%" y2="108.5%">
      <stop offset="0%" stop-color="#29CDFF"/>
      <stop offset="37.9%" stop-color="#148EFF"/>
      <stop offset="100%" stop-color="#0A60FF"/>
    </linearGradient>
    <linearGradient id="c" x1="69.7%" x2="16.7%" y1="-13%" y2="117.4%">
      <stop offset="0%" stop-color="#FA816E"/>
      <stop offset="41.5%" stop-color="#F74A5C"/>
      <stop offset="100%" stop-color="#F51D2C"/>
    </linearGradient>
    <linearGradient id="d" x1="68.1%" x2="30.4%" y1="-35.7%" y2="114.9%">
      <stop offset="0%" stop-color="#FA8E7D"/>
      <stop offset="51.3%" stop-color="#F74A5C"/>
      <stop offset="100%" stop-color="#F51D2C"/>
    </linearGradient>
  </defs>
  <g fill="none" fill-rule="evenodd">
    <g fill-rule="nonzero">
      <path fill="url(#a)" d="M92 4 4 92c-5 4-5 12 0 16l88 88c4 5 12 5 17 0l36-37a11 11 0 1 0-15-15l-28 28h-4l-70-70v-4l70-70h4l28 28a11 11 0 0 0 15-15L109 4c-5-5-13-5-17 0Z"/>
      <path fill="url(#b)" d="M92 4 4 92c-5 4-5 12 0 16l88 88c4 5 12 5 17 0l36-37a11 11 0 1 0-15-15l-28 28h-4l-70-70v-4l70-70c3-2 8-7 15-9 5-1 11 1 17 6L109 4c-5-5-13-5-17 0Z"/>
      <path fill="url(#c)" d="M154 136c4 4 11 4 15 0l27-27c5-5 5-12 0-17l-27-27a11 11 0 0 0-16 15l19 18v4l-18 19c-5 4-5 11 0 15Z"/>
    </g>
    <circle cx="100.5" cy="100.4" r="23.6" fill="url(#d)"/>
  </g>
</svg>
