<svg xmlns="http://www.w3.org/2000/svg" width="256" height="256" fill="none" viewBox="0 0 100 100">
    <circle cx="50" cy="50" r="50" fill="black"/>
    <path fill="#FFFCE1"
          d="m50.2 44.2.2-.4c0-2.7-.6-4.9-2-6.4-1.3-1.6-3.5-2.4-6.3-2.4a10 10 0 0 0-7 2.6 8.6 8.6 0 0 0-2.7 6.1c-.1 4.2 2.2 6.8 4.8 9.3 2 2.1 2.4 3.1 2.4 4.3 0 1.4-.7 2.1-1.8 2.1-.4 0-.8-.1-1-.4-.5-.4-.6-1.2-.6-2.2a.5.5 0 0 0 0-.4.6.6 0 0 0-.5-.2h-6a.6.6 0 0 0-.5.5c-.2 2.9.5 5.1 2 6.6 1.4 1.5 3.6 2.3 6.4 2.3 5.5 0 9.2-3.5 9.3-8.8 0-3.4-1.2-5.9-4.2-8.7-2.3-2.2-3-3.5-3-5 0-1.2.7-2 2-2 1.1 0 1.7.9 1.7 2.6 0 .3.3.7.7.7h5.7l.4-.2Z"/>
    <path fill="#FFFCE1"
          d="M32.3 49.3c0-.3-.2-.6-.5-.6H21.1c-.3 0-.5.2-.6.5l-1 4.7a.4.4 0 0 0 0 .4.6.6 0 0 0 .5.2H22v.4c-.4 1.2-1.1 2.4-2 3.1-1 .8-2.5 1.2-3.5.5-1.2-.7-1.4-2.5-1.5-3.7a19 19 0 0 1 1.5-8c.7-1.8 2.1-5 4.5-5 1.4 0 2 1 2.1 3.4a.4.4 0 0 0 .1.3h6.6a.6.6 0 0 0 .5-.5c0-3.3-.7-5.8-2.2-7.5a7.6 7.6 0 0 0-6-2.4c-8.6 0-13 8.6-14 17.1-.5 4.6.4 8.4 2.5 10.7a7.6 7.6 0 0 0 6.1 2.6c3 0 5.4-.7 7.2-2.1a16.6 16.6 0 0 0 5.2-8.8H30.5c.3 0 .6-.3.7-.6l1-4.7Z"/>
    <path fill="#FFFCE1" fill-rule="evenodd"
          d="M68.2 64.6V36a.5.5 0 0 0-.5-.5h-8.9c-.3 0-.4.2-.5.4L45.4 64.4c-.2.3.1.7.5.7h6.2c.4 0 .6 0 .7-.3l1.2-3c.2-.4.2-.4.6-.4h6c.4 0 .4 0 .4.4l-.1 2.8a.5.5 0 0 0 .1.4.5.5 0 0 0 .4.1h6.3a.5.5 0 0 0 .4-.2.5.5 0 0 0 .1-.3Zm-11-9.5H57a.2.2 0 0 1-.2-.1.1.1 0 0 1 0-.1 2.7 2.7 0 0 1 0-.2l4.5-11 .2-.4c0-.1.1-.1.2 0l-.6 11.3c0 .4 0 .5-.4.5h-3.6ZM76.2 35.6h4.7c7 0 10.4 3.1 10.3 9.3 0 7.4-4.5 12.7-11.2 14l-3 .2h-3.2a.2.2 0 0 0-.2.2.2.2 0 0 0 .1.2l.4.2 1 .5 1 .5.4.2c.2.1.3.3.2.6l-.7 3.2c0 .3-.2.4-.6.4h-5.9a.6.6 0 0 1-.4-.2.4.4 0 0 1-.1-.4L75.6 36c0-.3.3-.4.6-.4Zm3 17c3.2-.2 4.9-3.8 5-7.4 0-2-.8-3.3-2.1-3.3h-4.3a.2.2 0 0 0-.2.2.2.2 0 0 0 0 .2l3 1.5v.5l-.8 3.8-1 4.4h.4Z"
          clip-rule="evenodd"/>
</svg>