<svg xmlns="http://www.w3.org/2000/svg" width="250" height="250" preserveAspectRatio="xMidYMid" viewBox="0 0 256 257">
  <path fill="#FFF" d="M147 69V0h-38v69l19 27zm-38 118v70h38v-70l-19-26z"/>
  <path fill="#00F2E6" d="m147 187 41 56 31-22-41-56-31-10zM109 69 68 13 37 36l41 56 31 10z"/>
  <path fill="#00B9F1" d="M78 92 12 70 0 107l66 21 31-10zm81 46 19 27 66 21 12-36-66-22z"/>
  <path fill="#D63AFF" d="m190 128 66-21-12-37-66 22-19 26zm-124 0L0 150l12 36 66-21 19-27z"/>
  <path fill="#FB015B" d="m78 165-41 56 31 22 41-56v-32zm100-73 41-56-31-23-41 56v33z"/>
</svg>
