<svg xmlns="http://www.w3.org/2000/svg" width="250" height="250" preserveAspectRatio="xMidYMid" viewBox="0 0 256 222">
  <path fill="#007FFF" d="M216 151a7 7 0 0 0 3-6l1-41c0-3 1-5 3-6l22-13a7 7 0 0 1 11 6v75c0 2-1 5-4 6l-84 48a7 7 0 0 1-7 0l-66-37a7 7 0 0 1-4-7v-37h1v-1l54-31V70a7 7 0 0 0-11-6L95 87a7 7 0 0 1-7 0L47 64a7 7 0 0 0-10 6v67a7 7 0 0 1-11 6L4 130a7 7 0 0 1-4-6V7a7 7 0 0 1 11-6l77 44a7 7 0 0 0 7 0l77-44a7 7 0 0 1 11 6v117c0 3-2 5-4 6l-40 23a7 7 0 0 0 0 13l22 12a7 7 0 0 0 7 0l48-27Zm4-105a7 7 0 0 0 11 6l22-12a7 7 0 0 0 3-7V7a7 7 0 0 0-11-6l-21 13a7 7 0 0 0-3 6v26Z"/>
</svg>
