<svg xmlns="http://www.w3.org/2000/svg" xmlns:xlink="http://www.w3.org/1999/xlink" width="250" height="250" viewBox="0 0 256 292">
  <defs>
    <linearGradient id="a" x1="68.2%" x2="27.8%" y1="17.5%" y2="89.8%">
      <stop offset="0%" stop-color="#41873F"/>
      <stop offset="32.9%" stop-color="#418B3D"/>
      <stop offset="63.5%" stop-color="#419637"/>
      <stop offset="93.2%" stop-color="#3FA92D"/>
      <stop offset="100%" stop-color="#3FAE2A"/>
    </linearGradient>
    <linearGradient id="c" x1="43.3%" x2="159.2%" y1="55.2%" y2="-18.3%">
      <stop offset="13.8%" stop-color="#41873F"/>
      <stop offset="40.3%" stop-color="#54A044"/>
      <stop offset="71.4%" stop-color="#66B848"/>
      <stop offset="90.8%" stop-color="#6CC04A"/>
    </linearGradient>
    <linearGradient id="f" x1="-4.4%" x2="101.5%" y1="50%" y2="50%">
      <stop offset="9.2%" stop-color="#6CC04A"/>
      <stop offset="28.6%" stop-color="#66B848"/>
      <stop offset="59.7%" stop-color="#54A044"/>
      <stop offset="86.2%" stop-color="#41873F"/>
    </linearGradient>
    <path id="b" d="M135 2c-4-3-10-3-14 0L7 68c-5 2-7 7-7 12v132c0 5 3 9 7 12l114 66c4 2 10 2 14 0l114-66c5-3 7-7 7-12V80c0-5-3-10-7-12L135 2Z"/>
    <path id="e" d="M135 2c-4-3-10-3-14 0L7 68c-5 2-7 7-7 12v132c0 5 3 9 7 12l114 66c4 2 10 2 14 0l114-66c5-3 7-7 7-12V80c0-5-3-10-7-12L135 2Z"/>
  </defs>
  <path fill="url(#a)" d="M135 2c-4-3-10-3-14 0L7 68c-5 2-7 7-7 12v132c0 5 3 9 7 12l114 66c4 2 10 2 14 0l114-66c5-3 7-7 7-12V80c0-5-3-10-7-12L135 2Z"/>
  <mask id="d" fill="#fff">
    <use xlink:href="#b"/>
  </mask>
  <path fill="url(#c)" d="M249 68 135 2l-4-2L2 221l4 3 115 66c3 2 7 3 11 1L252 71c0-2-1-2-3-3Z" mask="url(#d)"/>
  <mask id="g" fill="#fff">
    <use xlink:href="#e"/>
  </mask>
  <path fill="url(#f)" d="M250 224c3-2 5-5 7-9L131 0c-4 0-7 0-10 2L7 68l123 224 5-2 115-66Z" mask="url(#g)"/>
</svg>
