<svg xmlns="http://www.w3.org/2000/svg" width="250" height="250" viewBox="0 0 569 512">
  <g fill="#087EA4">
    <path d="M286 201a54 54 0 1 0-1 109 54 54 0 0 0 1-109"/>
    <path d="M569 256c0-43-40-80-103-105l2-16c7-62-8-106-41-125-37-22-90-6-143 36-52-42-105-58-142-36-33 19-48 63-41 125l2 16-16 6c-56 26-87 61-87 99 0 43 40 80 103 105l-2 16c-7 62 8 106 41 125 12 7 25 10 38 10 31 0 68-17 104-46 37 29 74 46 105 46 13 0 26-3 38-10 33-19 48-63 41-125l-2-16c63-25 103-62 103-105M389 27c9 0 17 2 24 6 23 13 34 49 29 99l-2 10c-26-8-53-14-80-17-16-22-35-42-55-61 32-24 61-37 84-37m-11 283c-10 18-21 35-33 51a590 590 0 0 1-121 0 589 589 0 0 1-61-105 583 583 0 0 1 61-105 579 579 0 0 1 121 0 599 599 0 0 1 61 105c-8 19-18 37-28 54m42-20c6 18 11 35 15 53-17 6-35 10-53 13a603 603 0 0 0 38-66M246 390a626 626 0 0 0 77 0c-12 15-25 28-38 41-14-13-27-26-39-41Zm-59-34c-18-3-36-7-53-13 4-18 9-35 15-53a563 563 0 0 0 38 66m-38-134c-6-18-11-35-15-53 17-6 35-10 53-13a629 629 0 0 0-38 66m174-100a626 626 0 0 0-77 0c12-15 25-28 38-41 14 13 27 26 39 41Zm79 66-20-32c18 3 36 7 53 13-4 18-9 35-15 53l-18-34m-274-56c-6-50 5-86 28-99 7-4 15-6 24-6 23 0 52 13 84 37-20 19-39 39-55 61-27 4-54 9-80 17l-2-10m-29 50 10-4c6 27 15 53 25 78-10 25-19 51-25 78-51-21-81-50-81-78 0-27 26-53 71-74Zm58 297c-23-13-34-49-28-99l1-10c26 8 53 14 80 17 17 22 35 42 55 61-44 34-84 45-108 31m286-99c5 50-6 86-29 99-24 14-64 3-108-31 20-19 39-39 55-61 27-3 54-9 80-17l2 10m19-46c-6-27-15-53-25-78 10-25 19-51 25-78 51 21 81 50 81 78s-30 57-81 78"/>
  </g>
</svg>
