<svg xmlns="http://www.w3.org/2000/svg" xmlns:xlink="http://www.w3.org/1999/xlink" width="250" height="250" preserveAspectRatio="xMidYMid" viewBox="0 0 256 319"><defs><path id="a" d="M10 293 0 31c0-9 6-16 15-17L238 0a16 16 0 0 1 17 16v286a16 16 0 0 1-16 16l-214-9c-8-1-15-7-15-16Z"/></defs><mask id="b" fill="#fff"><use xlink:href="#a"/></mask><use xlink:href="#a" fill="#FF4785"/><path fill="#FFF" d="m189 39 1-37 31-2 1 38a2 2 0 0 1-4 2l-11-10-15 11a2 2 0 0 1-3-2Zm-40 81c0 6 42 3 48-1 0-43-23-65-64-65-42 0-65 23-65 57 0 59 79 60 79 92 0 9-4 15-14 15-13 0-18-7-17-29 0-5-48-6-50 0-4 54 30 69 68 69 37 0 66-20 66-55 0-64-81-62-81-93 0-13 9-15 15-15s16 1 15 25Z" mask="url(#b)"/></svg>