<svg xmlns="http://www.w3.org/2000/svg" xmlns:xlink="http://www.w3.org/1999/xlink" width="250" height="250" viewBox="0 0 318 318"><defs><path id="a" d="M0 0h318v318H0z"/><mask id="b" width="318" height="318" x="0" y="0" fill="#fff"><use xlink:href="#a"/></mask></defs><g fill="none" fill-rule="evenodd"><use xlink:href="#a" stroke="#4a4a4a" stroke-width="8" mask="url(#b)"/><path fill="#4a4a4a" d="M44 229c-4 0-7 3-7 6s2 5 6 6c3 1 4 1 4 3 0 1-1 2-3 2l-6-2-2 3c2 1 4 3 8 3s8-3 8-7c0-3-3-4-6-6-4 0-4-1-4-2l2-2 5 1 2-2c-2-2-4-3-7-3zm21 16 1 3-4 2c-4 0-6-3-6-7v-10h-3v-3h3v-4l4-1v5h5l-1 3h-4v10c0 2 1 3 2 3l3-1zm19-15-6 19c-1 5-4 7-10 8v-3c4-1 5-2 6-5h-2l-6-19h5l4 16 5-16zm8 20a8 8 0 0 0 3-1l-1-3h-1l-1-2v-22h-5v23c0 3 2 5 5 5zm21-11v2h-12c1 4 2 5 5 5 2 0 3 0 5-2l2 3-7 3c-6 0-9-4-9-10s3-11 8-11 8 4 8 10zm-4-1c0-3-1-5-4-5-2 0-3 1-4 5zm20-16h5v27h-5v-2c-1 1-3 3-5 3-5 0-8-4-8-11 0-5 3-10 8-10l5 2zm-4 24 4-2v-9l-4-2c-2 0-4 2-4 6 0 5 2 7 4 7zm-81 19c-5 0-8 5-8 11s3 10 8 10c3 0 5-1 7-3l-2-3-4 2c-3 0-5-2-5-6 0-5 2-7 5-7l4 1 2-2c-2-2-4-3-7-3zm18 0c5 0 9 4 9 10s-4 11-9 11-9-4-9-11c0-6 3-10 9-10zm0 4c-3 0-4 2-4 6 0 5 1 7 4 7s4-2 4-7-2-6-4-6zm33-4c-2 0-4 2-6 4 0-2-2-4-4-4-3 0-4 2-6 3v-2h-4v19h5v-13l3-3c1 0 2 1 2 3v13h5v-13c1-2 2-3 4-3 1 0 2 1 2 3v13h4v-14c0-3-2-6-5-6zm20 0c5 0 8 4 8 10s-3 11-8 11c-2 0-4-1-5-3v9l-4 1v-27h4v2c1-2 3-3 5-3zm-1 17c2 0 4-2 4-7 0-4-2-6-4-6l-4 2v9l4 2zm21-17c5 0 9 4 9 10s-4 11-9 11-9-4-9-11c0-6 3-10 9-10zm0 4c-3 0-4 2-4 6 0 5 1 7 4 7s4-2 4-7-1-6-4-6zm23-4-6 3v-2h-4v19h5v-13c1-2 2-3 4-3 1 0 2 1 2 3v13h5v-14c0-3-2-6-6-6zm27 10v2h-12c0 4 2 5 4 5s3 0 5-2l2 3c-2 1-4 3-7 3-6 0-9-4-9-10s3-11 8-11c6 0 9 4 9 10zm-5-1c0-3-1-5-4-5-2 0-3 1-3 5zm19-9-6 3v-2h-4v19h4v-13l4-3c2 0 3 1 3 3v13h4v-14c0-3-2-6-5-6zm20 16-2 1c-2 0-2-1-2-3v-10h4v-3h-4v-5l-5 1v4h-3v3h3v10c0 4 2 7 6 7l5-2zm10-16c-4 0-7 3-7 6s2 5 6 6c3 1 4 1 4 3l-4 2-5-2-2 3c2 1 4 3 8 3s8-3 8-7c0-3-3-4-7-6-3 0-4-1-4-2l3-2 5 1 2-2c-2-2-4-3-7-3zM80 87l-36 23 36 23-4 4-38-23v-8l39-24m189 23v8l-38 23-4-5 37-22-37-23 4-5"/><text fill="#000" font-family="AppleColorEmoji, Apple Color Emoji" font-size="100" letter-spacing=".5" transform="translate(38 44)"><tspan x="70" y="100">💅</tspan></text></g></svg>