<svg xmlns="http://www.w3.org/2000/svg" xmlns:xlink="http://www.w3.org/1999/xlink" width="250" height="250" viewBox="0 0 633 633"><defs><linearGradient id="b" x1="50%" x2="50%" y1="0%" y2="71.7%"><stop offset="0%" stop-color="#6BDAFF"/><stop offset="31.9%" stop-color="#F9FFB5"/><stop offset="70.6%" stop-color="#FFA770"/><stop offset="100%" stop-color="#FF7373"/></linearGradient><linearGradient id="d" x1="44%" x2="53.4%" y1="8.5%" y2="93.9%"><stop offset="0%" stop-color="#673800"/><stop offset="100%" stop-color="#B65E00"/></linearGradient><linearGradient id="e" x1="50%" x2="50%" y1="0%" y2="100%"><stop offset="0%" stop-color="#2F8A00"/><stop offset="100%" stop-color="#90FF57"/></linearGradient><linearGradient id="f" x1="50%" x2="50%" y1="0%" y2="100%"><stop offset="0%" stop-color="#2F8A00"/><stop offset="100%" stop-color="#90FF57"/></linearGradient><linearGradient id="g" x1="50%" x2="50%" y1="0%" y2="100%"><stop offset="0%" stop-color="#2F8A00"/><stop offset="100%" stop-color="#90FF57"/></linearGradient><linearGradient id="h" x1="50%" x2="50%" y1="0%" y2="100%"><stop offset="0%" stop-color="#2F8A00"/><stop offset="100%" stop-color="#90FF57"/></linearGradient><linearGradient id="i" x1="50%" x2="50%" y1="0%" y2="100%"><stop offset="0%" stop-color="#2F8A00"/><stop offset="100%" stop-color="#90FF57"/></linearGradient><linearGradient id="j" x1="50%" x2="50%" y1="0%" y2="100%"><stop offset="0%" stop-color="#2F8A00"/><stop offset="100%" stop-color="#90FF57"/></linearGradient><linearGradient id="k" x1="92.9%" x2="8.6%" y1="45.8%" y2="54.9%"><stop offset="0%" stop-color="#EE2700"/><stop offset="100%" stop-color="#FF008E"/></linearGradient><linearGradient id="l" x1="61.1%" x2="43.7%" y1="3.6%" y2="43.1%"><stop offset="0%" stop-color="#FFF400"/><stop offset="100%" stop-color="#3C8700"/></linearGradient><linearGradient id="m" x1="50%" x2="50%" y1="0%" y2="100%"><stop offset="0%" stop-color="#FFDF00"/><stop offset="100%" stop-color="#FF9D00"/></linearGradient><linearGradient id="n" x1="127.3%" x2="0%" y1="49.8%" y2="50.2%"><stop offset="0%" stop-color="#FFA400"/><stop offset="100%" stop-color="#FF5E00"/></linearGradient><linearGradient id="o" x1="127.3%" x2="0%" y1="47.5%" y2="52.5%"><stop offset="0%" stop-color="#FFA400"/><stop offset="100%" stop-color="#FF5E00"/></linearGradient><linearGradient id="p" x1="127.3%" x2="0%" y1="46.2%" y2="53.8%"><stop offset="0%" stop-color="#FFA400"/><stop offset="100%" stop-color="#FF5E00"/></linearGradient><linearGradient id="q" x1="127.3%" x2="0%" y1="35.3%" y2="64.7%"><stop offset="0%" stop-color="#FFA400"/><stop offset="100%" stop-color="#FF5E00"/></linearGradient><linearGradient id="r" x1="127.3%" x2="0%" y1="4.9%" y2="95.1%"><stop offset="0%" stop-color="#FFA400"/><stop offset="100%" stop-color="#FF5E00"/></linearGradient><linearGradient id="s" x1="78.3%" x2="31.7%" y1="0%" y2="100%"><stop offset="0%" stop-color="#FFA400"/><stop offset="100%" stop-color="#FF5E00"/></linearGradient><linearGradient id="t" x1="57.9%" x2="44.9%" y1="0%" y2="100%"><stop offset="0%" stop-color="#FFA400"/><stop offset="100%" stop-color="#FF5E00"/></linearGradient><linearGradient id="u" x1="50.5%" x2="49.7%" y1="0%" y2="100%"><stop offset="0%" stop-color="#FFA400"/><stop offset="100%" stop-color="#FF5E00"/></linearGradient><circle id="a" cx="308.5" cy="308.5" r="308.5"/></defs><g fill="none" fill-rule="evenodd" transform="translate(9 8)"><mask id="c" fill="#fff"><use xlink:href="#a"/></mask><use xlink:href="#a" fill="url(#b)"/><ellipse cx="81.5" cy="602.5" fill="#015064" stroke="#00CFE2" stroke-width="25" mask="url(#c)" rx="214.5" ry="186"/><ellipse cx="535.5" cy="602.5" fill="#015064" stroke="#00CFE2" stroke-width="25" mask="url(#c)" rx="214.5" ry="186"/><ellipse cx="81.5" cy="640.5" fill="#015064" stroke="#00A8B8" stroke-width="25" mask="url(#c)" rx="214.5" ry="186"/><ellipse cx="535.5" cy="640.5" fill="#015064" stroke="#00A8B8" stroke-width="25" mask="url(#c)" rx="214.5" ry="186"/><ellipse cx="81.5" cy="676.5" fill="#015064" stroke="#007782" stroke-width="25" mask="url(#c)" rx="214.5" ry="186"/><ellipse cx="535.5" cy="676.5" fill="#015064" stroke="#007782" stroke-width="25" mask="url(#c)" rx="214.5" ry="186"/><g mask="url(#c)"><path fill="url(#d)" stroke="#6E3A00" stroke-width="6.1" d="M98 88c8 37 17 72 27 106s26 69 46 106l-52 12-21-118-20-99 20-7" transform="matrix(-1 0 0 1 262 75)"/><g stroke="#2F8A00"><path fill="url(#e)" stroke-width="9.3" d="M109 67S95 45 71 39c-16-5-34 0-54 14 16 13 30 21 41 22 17 3 51-8 51-8Z" transform="rotate(1 -6062 5926)"/><path fill="url(#f)" stroke-width="9.3" d="M109 67s-48-6-82 20C5 104-4 138 2 187l61-64 46-56Z" transform="rotate(1 -6062 5926)"/><path fill="url(#g)" stroke-width="9.3" d="M109 67c-2-22 4-38 17-49 14-11 29-17 44-18-5 22-12 36-22 44s-23 16-39 23Z" transform="rotate(1 -6062 5926)"/><path fill="url(#h)" stroke-width="9.3" d="M109 67c29-31 61-43 93-34 33 9 52 28 57 56l-75-8c-15-2-41-6-75-14Z" transform="rotate(1 -6062 5926)"/><path fill="url(#i)" stroke-width="9.3" d="M109 67c34-9 64-4 88 17 25 21 40 47 46 78-39-8-68-20-86-38a395 395 0 0 1-48-57Z" transform="rotate(1 -6062 5926)"/><path fill="url(#j)" stroke-width="9.3" d="M109 67c-33 16-51 38-56 68-5 31-1 63 13 99 25-42 39-71 43-90 3-18 3-44 0-77Z" transform="rotate(1 -6062 5926)"/><path stroke-linecap="round" stroke-width="5.9" d="M211 173a233 233 0 0 0-37 106"/><path stroke-linecap="round" stroke-width="5.9" d="M210 177c-24 2-43 10-57 24-13 13-23 26-29 38m95-72c29-7 51-10 66-7s27 8 36 14m-110-1c21 9 39 19 54 29 16 11 28 21 36 31"/></g><path stroke="#830305" stroke-linecap="round" stroke-linejoin="bevel" stroke-width="6.9" d="m409 398-23 19m-58-41-22 28m7-50 53 60"/><path fill="url(#k)" d="M68 27H6c-4 1-6 3-6 7s2 6 6 7h67l42-30c2-3 2-5 1-8s-5-4-9-3L68 27Z" transform="matrix(-1 0 0 1 421 362)"/><path fill="#D8D8D8" stroke="#FFF" stroke-linecap="round" stroke-linejoin="bevel" stroke-width="4.4" d="M403 392v-5m-21 2 1-4m-21 0v-3m-24-10 2-3m-16-9 3-3"/></g><ellipse cx="308.5" cy="720.5" fill="url(#l)" mask="url(#c)" rx="266" ry="316.5"/><ellipse cx="308.5" cy="720.5" stroke="#6DA300" stroke-opacity=".5" stroke-width="26" mask="url(#c)" rx="253" ry="303.5"/><g mask="url(#c)"><g transform="translate(389 -32)"><circle cx="168.5" cy="113.5" r="113.5" fill="url(#m)"/><circle cx="168.5" cy="113.5" r="106" stroke="#FFC900" stroke-opacity=".5" stroke-width="15"/><path stroke="url(#n)" stroke-linecap="round" stroke-linejoin="bevel" stroke-width="12" d="M30 113H0"/><path stroke="url(#o)" stroke-linecap="round" stroke-linejoin="bevel" stroke-width="12" d="M34 80 7 74"/><path stroke="url(#p)" stroke-linecap="round" stroke-linejoin="bevel" stroke-width="12" d="m34 146-29 8"/><path stroke="url(#q)" stroke-linecap="round" stroke-linejoin="bevel" stroke-width="12" d="m45 177-24 13"/><path stroke="url(#r)" stroke-linecap="round" stroke-linejoin="bevel" stroke-width="12" d="m67 204-20 19"/><path stroke="url(#s)" stroke-linecap="round" stroke-linejoin="bevel" stroke-width="12" d="m94 227-13 23"/><path stroke="url(#t)" stroke-linecap="round" stroke-linejoin="bevel" stroke-width="12" d="m128 244-8 24"/><path stroke="url(#u)" stroke-linecap="round" stroke-linejoin="bevel" stroke-width="12" d="M168 253v24"/></g></g><circle cx="307.5" cy="308.5" r="304" stroke="#000" stroke-width="25"/></g></svg>